/* XPM */
static char *_71994e5cc444280e1edb116e3fc46fdU70KnW8qL37noKr7[] = {
/* columns rows colors chars-per-pixel */
"64 64 6 1 ",
"  c None",
". c #181818",
"X c #282828",
"o c #8E3B3B",
"O c #BD4646",
"+ c #FD7C7C",
/* pixels */
"                                                                ",
"                                                                ",
"                                                                ",
"                                                                ",
"                                                                ",
"                                                                ",
"                                                                ",
"                                                                ",
"                                                                ",
"                                                                ",
"                                                                ",
"                                                                ",
"                                                                ",
"                                                                ",
"      ooooooo                                                   ",
"   ooo+++++++ooo                                                ",
"   o+o+++++++o+o                                                ",
"   o+++++++++++o                                                ",
"   ooo++++++++oo                                                ",
"     o++.++X++o                                                 ",
"     o+++OO+++o                                                 ",
"     o++OOOO++o                                                 ",
"     o++++++++o                                                 ",
"     o+++++++++o                                                ",
"     o++++++++++o   oooooooo                                    ",
"     o+++++++++++oooo+++++++oo                                  ",
"     o++++++++++++++++++++++++oo                                ",
"      o+++++++++++++++++++++++++oo                              ",
"       o++++++++++++++++++++++++++o                             ",
"        o++++++++++++++++++++++++++o                            ",
"         o+++++++++++++++ooo+++++++o                            ",
"         o++++++++++++++o+++++++++++o                           ",
"          o+++++++++++++o++++++++++++o                          ",
"           o++++o+++++++o+++++++++++++o                         ",
"            o+++o+++++++o++++++++++++++o                        ",
"            o+++o+++++++o+++++++o+++++++ooo                     ",
"            o+++oooo+++++o++++++o++++++++++oooooo               ",
"         ooooo++o   oooooooo++++oooo+++++++++++++ooooooooooo    ",
"         o++++++o        o++++++o   ooo+++++++++++++++++++++ooo ",
"         oooooooo        ooooooo       ooooooooooooooooooooo    ",
"                                                                ",
"                                                                ",
"                                                                ",
"                                                                ",
"                                                                ",
"                                                                ",
"                                                                ",
"                                                                ",
"                                                                ",
"                                                                ",
"                                                                ",
"                                                                ",
"                                                                ",
"                                                                ",
"                                                                ",
"                                                                ",
"                                                                ",
"                                                                ",
"                                                                ",
"                                                                ",
"                                                                ",
"                                                                ",
"                                                                ",
"                                                                "
};
