/* XPM */
static char *e949c350b75746a5937d00671cf017dbi5T8YNw1YzIU8UrA[] = {
/* columns rows colors chars-per-pixel */
"64 64 3 1 ",
"  c #421802",
". c #21654A",
"X c #E59A38",
/* pixels */
"                                                                ",
"                                                                ",
"                                                                ",
"  ............................................................  ",
"  ............................................................  ",
"  ..                                                        ..  ",
"  .. ...................................................... ..  ",
"  .. .                                                    . ..  ",
"  .. . .................................................. . ..  ",
"  .. . .................................................. . ..  ",
"  .. . ..                                              .. . ..  ",
"  .. . .. ............................................ .. . ..  ",
"  .. . .. ............................................ .. . ..  ",
"  .. . .. ............................................ .. . ..  ",
"  .. . .. ............................................ .. . ..  ",
"  .. . .. ............................................ .. . ..  ",
"  .. . .. ............................................ .. . ..  ",
"  .. . .. ............................................ .. . ..  ",
"  .. . .. ............................................ .. . ..  ",
"  .. . .. ......                                ...... .. . ..  ",
"  .. . .. ...... XXXXXXXXXXXXXXXXXXXXXXXXXXXXXX ...... .. . ..  ",
"  .. . .. ...... XXXXXXXXXXXXXXXXXXXXXXXXXXXXXX ...... .. . ..  ",
"  .. . .. ...... XXXXXXXXXXXXXXXXXXXXXXXXXXXXXX ...... .. . ..  ",
"  .. . .. ...... XXXXXXXXXXXXXXXXXXXXXXXXXXXXXX ...... .. . ..  ",
"  .. . .. ...... XXXXXXXXXXXXXXXXXXXXXXXXXXXXXX ...... .. . ..  ",
"  .. . .. ...... XXXXXXXXXXXXXXXXXXXXXXXXXXXXXX ...... .. . ..  ",
"  .. . .. ...... XXXXXXXXXXXXXXXXXXXXXXXXXXXXXX ...... .. . ..  ",
"  .. . .. ...... XXXXXXXXXXXXXXXXXXXXXXXXXXXXXX ...... .. . ..  ",
"  .. . .. ...... XXXXXXXXXXXXXXXXXXXXXXXXXXXXXX ...... .. . ..  ",
"  .. . .. ...... XXXXXXXXXXXXXXXXXXXXXXXXXXXXXX ...... .. . ..  ",
"  .. . .. ...... XXXXXXXXXXXXXXXXXXXXXXXXXXXXXX ...... .. . ..  ",
"  .. . .. ...... XXXXXXXXXXXXXXXXXXXXXXXXXXXXXX ...... .. . ..  ",
"  .. . .. ...... XXXXXXXXXXXXXXXXXXXXXXXXXXXXXX ...... .. . ..  ",
"  .. . .. ...... XXXXXXXXXXXXXXXXXXXXXXXXXXXXXX ...... .. . ..  ",
"  .. . .. ...... XXXXXXXXXXXXXXXXXXXXXXXXXXXXXX ...... .. . ..  ",
"  .. . .. ...... XXXXXXXXXXXXXXXXXXXXXXXXXXXXXX ...... .. . ..  ",
"  .. . .. ...... XXXXXXXXXXXXXXXXXXXXXXXXXXXXXX ...... .. . ..  ",
"  .. . .. ...... XXXXXXXXXXXXXXXXXXXXXXXX       ...... .. . ..  ",
"  .. . .. ...... XXXXXXXXXXXXXXXXXXXXXXXX       ...... .. . ..  ",
"  .. . .. ...... XXXXXXXXXXXXXXXXXXXXXXXX       ...... .. . ..  ",
"  .. . .. ...... XXXXXXXXXXXXXXXXXXXXXXXX       ...... .. . ..  ",
"  .. . .. ...... XXXXXXXXXXXXXXXXXXXXXXXX       ...... .. . ..  ",
"  .. . .. ...... XXXXXXXXXXXXXXXXXXXXXXXX       ...... .. . ..  ",
"  .. . .. ...... XXXXXXXXXXXXXXXXXXXXXXXXXXXXXX ...... .. . ..  ",
"  .. . .. ...... XXXXXXXXXXXXXXXXXXXXXXXXXXXXXX ...... .. . ..  ",
"  .. . .. ...... XXXXXXXXXXXXXXXXXXXXXXXXXXXXXX ...... .. . ..  ",
"  .. . .. ...... XXXXXXXXXXXXXXXXXXXXXXXXXXXXXX ...... .. . ..  ",
"  .. . .. ...... XXXXXXXXXXXXXXXXXXXXXXXXXXXXXX ...... .. . ..  ",
"  .. . .. ...... XXXXXXXXXXXXXXXXXXXXXXXXXXXXXX ...... .. . ..  ",
"  .. . .. ...... XXXXXXXXXXXXXXXXXXXXXXXXXXXXXX ...... .. . ..  ",
"  .. . .. ...... XXXXXXXXXXXXXXXXXXXXXXXXXXXXXX ...... .. . ..  ",
"  .. . .. ...... XXXXXXXXXXXXXXXXXXXXXXXXXXXXXX ...... .. . ..  ",
"  .. . .. ...... XXXXXXXXXXXXXXXXXXXXXXXXXXXXXX ...... .. . ..  ",
"  .. . .. ...... XXXXXXXXXXXXXXXXXXXXXXXXXXXXXX ...... .. . ..  ",
"  .. . .. ...... XXXXXXXXXXXXXXXXXXXXXXXXXXXXXX ...... .. . ..  ",
"  .. . .. ...... XXXXXXXXXXXXXXXXXXXXXXXXXXXXXX ...... .. . ..  ",
"  .. . .. ...... XXXXXXXXXXXXXXXXXXXXXXXXXXXXXX ...... .. . ..  ",
"  .. . .. ...... XXXXXXXXXXXXXXXXXXXXXXXXXXXXXX ...... .. . ..  ",
"  .. . .. ...... XXXXXXXXXXXXXXXXXXXXXXXXXXXXXX ...... .. . ..  ",
"  .. . .. ...... XXXXXXXXXXXXXXXXXXXXXXXXXXXXXX ...... .. . ..  ",
"  .. . .. ...... XXXXXXXXXXXXXXXXXXXXXXXXXXXXXX ...... .. . ..  ",
"  ..                                                        ..  ",
"                                                                ",
"                                                                "
};
