/* XPM */
static char *_76ec28610d845cf8dbe4f2f08192a821pZZq75TKpo0rKIk[] = {
/* columns rows colors chars-per-pixel */
"64 64 21 1 ",
"  c #383737",
". c #421802",
"X c #21654A",
"o c #428D1F",
"O c #489A22",
"+ c #4EA725",
"@ c #54B428",
"# c #E59A38",
"$ c #FFD61E",
"% c #FFD92D",
"& c #FFDC3C",
"* c #FFDF4B",
"= c #FFE25A",
"- c #FFE569",
"; c #FFE878",
": c #FFEB87",
"> c #FFEE96",
", c #FFF0A5",
"< c #FFF3B4",
"1 c #FFF5C3",
"2 c #FFF8D2",
/* pixels */
"............................    ................................",
"............................    ................................",
"......................    ......................................",
"......................    ......................................",
"........XXXXXX........    ....    ..............................",
"........XXXXXX........    ....    ..............................",
"......XXXXXXXXXX..............    ....    ......................",
"......XXXXXXXXXX..............    ....    ......................",
"....XXXXXXXXXXXXXX......................  ......................",
"....XXXXXXXXXXXXXX......................  ......................",
"....XXXXXXXXXXXX......      ......    ..........................",
"....XXXXXXXXXXXX......      ......    ..........................",
"......XXXXXXXXXX......      ..;;..    ..........................",
"......XXXXXXXXXX......      ..;;..    ..........................",
"..........##................::<<>>..............................",
"..........##................::<<>>..............................",
"........####................==****;;..    ......................",
"........####................==****;;..    ......................",
"......................    11==>>;;::..    ......................",
"......................    11==>>;;::..    ......................",
"......................    **;;,,>>--::oo........................",
"......................    **;;,,>>--::oo........................",
"....................  ..oo;;;;==;;;;%%oo  ......................",
"....................  ..oo;;;;==;;;;%%oo  ......................",
"........    ......    ..oo$$$$**,,====oo  ..........    ........",
"........    ......    ..oo$$$$**,,====oo  ..........    ........",
"..    ..  ..  ..........oo$$>>&&<<::,,oo......    ....  ..    ..",
"..    ..  ..  ..........oo$$>>&&<<::,,oo......    ....  ..    ..",
"..    ......    ..  ....oooo--==::>>--oo  ..  ..  ........    ..",
"..    ......    ..  ....oooo--==::>>--oo  ..  ..  ........    ..",
"......  ..........    ..oooo::<<::22--oo      ..........  ......",
"......  ..........    ..oooo::<<::22--oo      ..........  ......",
"..    ..  ..    ..........oo%%--;;--==oo........    ..  ..    ..",
"..    ..  ..    ..........oo%%--;;--==oo........    ..  ..    ..",
"..    ......    ..........oo;;**;;**;;oo........    ......    ..",
"..    ......    ..........oo;;**;;**;;oo........    ......    ..",
"........  ........    ....oo::>>>>==::oo..    ........  ........",
"........  ........    ....oo::>>>>==::oo..    ........  ........",
"..  ..  ....    ..    ..  oo<<%%::,,oooo..    ..    ....  ..  ..",
"..  ..  ....    ..    ..  oo<<%%::,,oooo..    ..    ....  ..  ..",
"......    ....  ........  oo--;;==**oo  ........  ....    ......",
"......    ....  ........  oo--;;==**oo  ........  ....    ......",
"..................    ....oo>>**==++oo..........................",
"..................    ....oo>>**==++oo..........................",
"..................    ..  ooOO@@oooooo..........................",
"..................    ..  ooOO@@oooooo..........................",
"........................    oooooooo..    ......................",
"........................    oooooooo..    ......................",
"............................  ..  ....    ......................",
"............................  ..  ....    ......................",
"....................    ..  ......    ..........................",
"....................    ..  ......    ..........................",
"....................    ..    ....    ..............XXXXXX......",
"....................    ..    ....    ..............XXXXXX......",
"..................................................XXXXXXXXXX....",
"..................................................XXXXXXXXXX....",
"............................    ..  ............XXXXXXXXXXXXXX..",
"............................    ..  ............XXXXXXXXXXXXXX..",
"......................    ..    ..................XXXX##XXXX....",
"......................    ..    ..................XXXX##XXXX....",
"......................    ........    ................##........",
"......................    ........    ................##........",
"............................    ....  ..........................",
"............................    ....  .........................."
};
