/* XPM */
static char *d4a33da7a7f844179bf3a30d6228d758SlpBacIsdW9Caeg3[] = {
/* columns rows colors chars-per-pixel */
"64 64 21 1 ",
"  c #383737",
". c #421802",
"X c #21654A",
"o c #E59A38",
"O c #489A22",
"+ c #4EA725",
"@ c #54B428",
"# c #E69B35",
"$ c #FFD61E",
"% c #FFD92D",
"& c #FFDC3C",
"* c #FFDF4B",
"= c #FFE25A",
"- c #FFE569",
"; c #FFE878",
": c #FFEB87",
"> c #FFEE96",
", c #FFF0A5",
"< c #FFF3B4",
"1 c #FFF5C3",
"2 c #FFF8D2",
/* pixels */
"............................    ................................",
"............................    ................................",
"......................    ......................................",
"......................    ......................................",
"........XXXXXX........    ....    ..............................",
"........XXXXXX........    ....    ..............................",
"......XXXXXXXXXX..............    ....    ......................",
"......XXXXXXXXXX..............    ....    ......................",
"....XXXXXXXXXXXXXX..........;;..........  ......................",
"....XXXXXXXXXXXXXX..........;;..........  ......................",
"....XXXXXXXXXXXX......    ::<<>>..    ..........................",
"....XXXXXXXXXXXX......    ::<<>>..    ..........................",
"......XXXXXXXXXX......    ==****;;    ..........................",
"......XXXXXXXXXX......    ==****;;    ..........................",
"..........##............11==>>;;::..............................",
"..........##............11==>>;;::..............................",
"........####............**;;,,>>--::oo    ......................",
"........####............**;;,,>>--::oo    ......................",
"......................oo;;;;==;;;;%%oo    ......................",
"......................oo;;;;==;;;;%%oo    ......................",
"......................oo$$$$**,,====oo..........................",
"......................oo$$$$**,,====oo..........................",
"....................  oo$$>>&&<<::,,oo    ......................",
"....................  oo$$>>&&<<::,,oo    ......................",
"........    ......    oooo--==::>>--oo    ..........    ........",
"........    ......    oooo--==::>>--oo    ..........    ........",
"..    ..  ..  ........oooo::<<::22--oo........    ....  ..    ..",
"..    ..  ..  ........oooo::<<::22--oo........    ....  ..    ..",
"..    ......    ..  ....oo%%--;;--==oo    ..  ..  ........    ..",
"..    ......    ..  ....oo%%--;;--==oo    ..  ..  ........    ..",
"......  ..........    ..oo;;**;;**;;oo..      ..........  ......",
"......  ..........    ..oo;;**;;**;;oo..      ..........  ......",
"..    ..  ..    ........oo::>>>>==::oo  ........    ..  ..    ..",
"..    ..  ..    ........oo::>>>>==::oo  ........    ..  ..    ..",
"..    ......    ........oo<<%%::,,oooo  ........    ......    ..",
"..    ......    ........oo<<%%::,,oooo  ........    ......    ..",
"........  ........    ..oo--;;==**oo......    ........  ........",
"........  ........    ..oo--;;==**oo......    ........  ........",
"..  ..  ....    ..    ..oo>>**==++oo    ..    ..    ....  ..  ..",
"..  ..  ....    ..    ..oo>>**==++oo    ..    ..    ....  ..  ..",
"......    ....  ........ooOO@@oooooo..  ........  ....    ......",
"......    ....  ........ooOO@@oooooo..  ........  ....    ......",
"..................    ....oooooooo    ..........................",
"..................    ....oooooooo    ..........................",
"..................    ..    ..  ..    ..........................",
"..................    ..    ..  ..    ..........................",
"........................    ..........    ......................",
"........................    ..........    ......................",
"............................  ..  ....    ......................",
"............................  ..  ....    ......................",
"....................    ..  ......    ..........................",
"....................    ..  ......    ..........................",
"....................    ..    ....    ..............XXXXXX......",
"....................    ..    ....    ..............XXXXXX......",
"..................................................XXXXXXXXXX....",
"..................................................XXXXXXXXXX....",
"............................    ..  ............XXXXXXXXXXXXXX..",
"............................    ..  ............XXXXXXXXXXXXXX..",
"......................    ..    ..................XXXX##XXXX....",
"......................    ..    ..................XXXX##XXXX....",
"......................    ........    ................##........",
"......................    ........    ................##........",
"............................    ....  ..........................",
"............................    ....  .........................."
};
