/* XPM */
static char *result[] = {
/* columns rows colors chars-per-pixel */
"64 64 4 1 ",
"  c #383737",
". c #421802",
"X c #21654A",
"o c #E59A38",
/* pixels */
"............................    ................................",
"............................    ................................",
"......................    ......................................",
"......................    ......................................",
"........XXXXXX........    ....    ..............................",
"........XXXXXX........    ....    ..............................",
"......XXXXXXXXXX..............    ....    ......................",
"......XXXXXXXXXX..............    ....    ......................",
"....XXXXXXXXXXXXXX......................  ......................",
"....XXXXXXXXXXXXXX......................  ......................",
"....XXXXXXXXXXXX......      ......    ..........................",
"....XXXXXXXXXXXX......      ......    ..........................",
"......XXXXXXXXXX......      ..  ..    ..........................",
"......XXXXXXXXXX......      ..  ..    ..........................",
"..........oo....................................................",
"..........oo....................................................",
"........oooo................    ..  ..    ......................",
"........oooo................    ..  ..    ......................",
"......................    ..    ......    ......................",
"......................    ..    ......    ......................",
"......................    ......    ............................",
"......................    ......    ............................",
"....................  ....    ..    ..    ......................",
"....................  ....    ..    ..    ......................",
"........    ......    ....    ........    ..........    ........",
"........    ......    ....    ........    ..........    ........",
"..    ..  ..  ................................    ....  ..    ..",
"..    ..  ..  ................................    ....  ..    ..",
"..    ......    ..  ....    ....    ..    ..  ..  ........    ..",
"..    ......    ..  ....    ....    ..    ..  ..  ........    ..",
"......  ..........    ..    ....    ....      ..........  ......",
"......  ..........    ..    ....    ....      ..........  ......",
"..    ..  ..    ............  ......    ........    ..  ..    ..",
"..    ..  ..    ............  ......    ........    ..  ..    ..",
"..    ......    ..........    ......    ........    ......    ..",
"..    ......    ..........    ......    ........    ......    ..",
"........  ........    ........    ........    ........  ........",
"........  ........    ........    ........    ........  ........",
"..  ..  ....    ..    ..    ..    ..    ..    ..    ....  ..  ..",
"..  ..  ....    ..    ..    ..    ..    ..    ..    ....  ..  ..",
"......    ....  ........  ............  ........  ....    ......",
"......    ....  ........  ............  ........  ....    ......",
"..................    ......    ..    ..........................",
"..................    ......    ..    ..........................",
"..................    ..    ..  ..    ..........................",
"..................    ..    ..  ..    ..........................",
"........................    ..........    ......................",
"........................    ..........    ......................",
"............................  ..  ....    ......................",
"............................  ..  ....    ......................",
"....................    ..  ......    ..........................",
"....................    ..  ......    ..........................",
"....................    ..    ....    ..............XXXXXX......",
"....................    ..    ....    ..............XXXXXX......",
"..................................................XXXXXXXXXX....",
"..................................................XXXXXXXXXX....",
"............................    ..  ............XXXXXXXXXXXXXX..",
"............................    ..  ............XXXXXXXXXXXXXX..",
"......................    ..    ..................XXXXooXXXX....",
"......................    ..    ..................XXXXooXXXX....",
"......................    ........    ................oo........",
"......................    ........    ................oo........",
"............................    ....  ..........................",
"............................    ....  .........................."
};
