/* XPM */
static char *_9c1410dfab54d719eb3b418de7055a0AaLJqTE3vQYfihNQ[] = {
/* columns rows colors chars-per-pixel */
"64 64 12 1 ",
"  c None",
". c #1B1C12",
"X c #636442",
"o c red",
"O c #BA811D",
"+ c #FFBE00",
"@ c #FFDA69",
"# c #FFDE78",
"$ c #FFE287",
"% c gray85",
"& c #E9E9E9",
"* c white",
/* pixels */
"                                              oooo              ",
"                                              oooo              ",
"                                                oooo            ",
"                                                oooo            ",
"                                          ****************      ",
"                                          ****************      ",
"                                          ****************      ",
"                                          ****************      ",
"                                          ****************      ",
"                                          ****************      ",
"                                          ************....      ",
"                                          ************....      ",
"                                          ************..XX      ",
"                                          ************..XX      ",
"                                          ****************      ",
"                                          ****************      ",
"**********************************************************OOOOOO",
"**********************************************************OOOOOO",
"**********************************************************OOOOOO",
"**********************************************************OOOOOO",
"**********************************************************OOOOOO",
"**********************************************************OOOOOO",
"****%%%%%%******************************&&****************      ",
"****%%%%%%******************************&&****************      ",
"****%%**********************************%%****************      ",
"****%%**********************************%%****************      ",
"****%%**********************************%%****************      ",
"****%%**********************************%%****************      ",
"****%%%%%%******************************%%****************      ",
"****%%%%%%******************************%%****************      ",
"****%%**********************************%%**********            ",
"****%%**********************************%%**********            ",
"****%%%%%%******************************%%**********            ",
"****%%%%%%******************************%%**********            ",
"****%%**********************************%%**********            ",
"****%%**********************************%%**********            ",
"****%%**********************************%%**********            ",
"****%%**********************************%%**********            ",
"****%%%%%%%%%%%%%%%%%%%%%%%%%%%%%%%%%%%%%%**********            ",
"****%%%%%%%%%%%%%%%%%%%%%%%%%%%%%%%%%%%%%%**********            ",
"****************************************************            ",
"****************************************************            ",
"****************************************************            ",
"****************************************************            ",
"****************************************************            ",
"****************************************************            ",
"****************************************************            ",
"****************************************************            ",
"                ++++                                            ",
"                ++++                                            ",
"                ++++                                            ",
"                ++++                                            ",
"                ++++                                            ",
"                ++++                                            ",
"                ++++                                            ",
"                ++++                                            ",
"                ++++                                            ",
"                ++++                                            ",
"                ++++                                            ",
"                ++++                                            ",
"                ++++++++++++                                    ",
"                ++++++++++++                                    ",
"                ##@@@@@@##$$                                    ",
"                ##@@@@@@##$$                                    "
};
