/* XPM */
static char *result[] = {
/* columns rows colors chars-per-pixel */
"64 64 2 1 ",
"  c #21654A",
". c #E59A38",
/* pixels */
"                                                                ",
"                                                                ",
"                                                                ",
"                                                                ",
"    ........................................................    ",
"    ........................................................    ",
"    ....                                                ....    ",
"    ....                                                ....    ",
"    ..  ..                                            ..  ..    ",
"    ..  ..                                            ..  ..    ",
"    ..    ..                                        ..    ..    ",
"    ..    ..                                        ..    ..    ",
"    ..      ..                                    ..      ..    ",
"    ..      ..                                    ..      ..    ",
"    ..        ..                                ..        ..    ",
"    ..        ..                                ..        ..    ",
"    ..          ..                            ..          ..    ",
"    ..          ..                            ..          ..    ",
"    ..            ..                        ..            ..    ",
"    ..            ..                        ..            ..    ",
"    ..              ..                    ..              ..    ",
"    ..              ..                    ..              ..    ",
"    ..                ..                ..                ..    ",
"    ..                ..                ..                ..    ",
"    ..                  ..            ..                  ..    ",
"    ..                  ..            ..                  ..    ",
"    ..                    ..        ..                    ..    ",
"    ..                    ..        ..                    ..    ",
"    ..                      ..    ..                      ..    ",
"    ..                      ..    ..                      ..    ",
"    ..                        ....                        ..    ",
"    ..                        ....                        ..    ",
"    ..                        ....                        ..    ",
"    ..                        ....                        ..    ",
"    ..                      ..    ..                      ..    ",
"    ..                      ..    ..                      ..    ",
"    ..                    ..        ..                    ..    ",
"    ..                    ..        ..                    ..    ",
"    ..                  ..            ..                  ..    ",
"    ..                  ..            ..                  ..    ",
"    ..                ..                ..                ..    ",
"    ..                ..                ..                ..    ",
"    ..              ..                    ..              ..    ",
"    ..              ..                    ..              ..    ",
"    ..            ..                        ..            ..    ",
"    ..            ..                        ..            ..    ",
"    ..          ..                            ..          ..    ",
"    ..          ..                            ..          ..    ",
"    ..        ..                                ..        ..    ",
"    ..        ..                                ..        ..    ",
"    ..      ..                                    ..      ..    ",
"    ..      ..                                    ..      ..    ",
"    ..    ..                                        ..    ..    ",
"    ..    ..                                        ..    ..    ",
"    ..  ..                                            ..  ..    ",
"    ..  ..                                            ..  ..    ",
"    ....                                                ....    ",
"    ....                                                ....    ",
"    ........................................................    ",
"    ........................................................    ",
"                                                                ",
"                                                                ",
"                                                                ",
"                                                                "
};
