/* XPM */
static char *result[] = {
/* columns rows colors chars-per-pixel */
"64 64 12 1 ",
"  c #1B1C12",
". c #636442",
"X c red",
"o c #BA811D",
"O c #FFBE00",
"+ c #FFDA69",
"@ c #FFDE78",
"# c #FFE287",
"$ c gray85",
"% c #E9E9E9",
"& c white",
"* c None",
/* pixels */
"**************XXXX**********************************************",
"**************XXXX**********************************************",
"************XXXX************************************************",
"************XXXX************************************************",
"******&&&&&&&&&&&&&&&&******************************************",
"******&&&&&&&&&&&&&&&&******************************************",
"******&&&&&&&&&&&&&&&&******************************************",
"******&&&&&&&&&&&&&&&&******************************************",
"******&&&&&&&&&&&&&&&&******************************************",
"******&&&&&&&&&&&&&&&&******************************************",
"******    &&&&&&&&&&&&******************************************",
"******    &&&&&&&&&&&&******************************************",
"******..  &&&&&&&&&&&&******************************************",
"******..  &&&&&&&&&&&&******************************************",
"******&&&&&&&&&&&&&&&&******************************************",
"******&&&&&&&&&&&&&&&&******************************************",
"oooooo&&&&&&&&&&&&&&&&&&&&&&&&&&&&&&&&&&&&&&&&&&&&&&&&&&&&&&&&&&",
"oooooo&&&&&&&&&&&&&&&&&&&&&&&&&&&&&&&&&&&&&&&&&&&&&&&&&&&&&&&&&&",
"oooooo&&&&&&&&&&&&&&&&&&&&&&&&&&&&&&&&&&&&&&&&&&&&&&&&&&&&&&&&&&",
"oooooo&&&&&&&&&&&&&&&&&&&&&&&&&&&&&&&&&&&&&&&&&&&&&&&&&&&&&&&&&&",
"oooooo&&&&&&&&&&&&&&&&&&&&&&&&&&&&&&&&&&&&&&&&&&&&&&&&&&&&&&&&&&",
"oooooo&&&&&&&&&&&&&&&&&&&&&&&&&&&&&&&&&&&&&&&&&&&&&&&&&&&&&&&&&&",
"******&&&&&&&&&&&&&&&&%%&&&&&&&&&&&&&&&&&&&&&&&&&&&&&&$$$$$$&&&&",
"******&&&&&&&&&&&&&&&&%%&&&&&&&&&&&&&&&&&&&&&&&&&&&&&&$$$$$$&&&&",
"******&&&&&&&&&&&&&&&&$$&&&&&&&&&&&&&&&&&&&&&&&&&&&&&&&&&&$$&&&&",
"******&&&&&&&&&&&&&&&&$$&&&&&&&&&&&&&&&&&&&&&&&&&&&&&&&&&&$$&&&&",
"******&&&&&&&&&&&&&&&&$$&&&&&&&&&&&&&&&&&&&&&&&&&&&&&&&&&&$$&&&&",
"******&&&&&&&&&&&&&&&&$$&&&&&&&&&&&&&&&&&&&&&&&&&&&&&&&&&&$$&&&&",
"******&&&&&&&&&&&&&&&&$$&&&&&&&&&&&&&&&&&&&&&&&&&&&&&&$$$$$$&&&&",
"******&&&&&&&&&&&&&&&&$$&&&&&&&&&&&&&&&&&&&&&&&&&&&&&&$$$$$$&&&&",
"************&&&&&&&&&&$$&&&&&&&&&&&&&&&&&&&&&&&&&&&&&&&&&&$$&&&&",
"************&&&&&&&&&&$$&&&&&&&&&&&&&&&&&&&&&&&&&&&&&&&&&&$$&&&&",
"************&&&&&&&&&&$$&&&&&&&&&&&&&&&&&&&&&&&&&&&&&&$$$$$$&&&&",
"************&&&&&&&&&&$$&&&&&&&&&&&&&&&&&&&&&&&&&&&&&&$$$$$$&&&&",
"************&&&&&&&&&&$$&&&&&&&&&&&&&&&&&&&&&&&&&&&&&&&&&&$$&&&&",
"************&&&&&&&&&&$$&&&&&&&&&&&&&&&&&&&&&&&&&&&&&&&&&&$$&&&&",
"************&&&&&&&&&&$$&&&&&&&&&&&&&&&&&&&&&&&&&&&&&&&&&&$$&&&&",
"************&&&&&&&&&&$$&&&&&&&&&&&&&&&&&&&&&&&&&&&&&&&&&&$$&&&&",
"************&&&&&&&&&&$$$$$$$$$$$$$$$$$$$$$$$$$$$$$$$$$$$$$$&&&&",
"************&&&&&&&&&&$$$$$$$$$$$$$$$$$$$$$$$$$$$$$$$$$$$$$$&&&&",
"************&&&&&&&&&&&&&&&&&&&&&&&&&&&&&&&&&&&&&&&&&&&&&&&&&&&&",
"************&&&&&&&&&&&&&&&&&&&&&&&&&&&&&&&&&&&&&&&&&&&&&&&&&&&&",
"************&&&&&&&&&&&&&&&&&&&&&&&&&&&&&&&&&&&&&&&&&&&&&&&&&&&&",
"************&&&&&&&&&&&&&&&&&&&&&&&&&&&&&&&&&&&&&&&&&&&&&&&&&&&&",
"************&&&&&&&&&&&&&&&&&&&&&&&&&&&&&&&&&&&&&&&&&&&&&&&&&&&&",
"************&&&&&&&&&&&&&&&&&&&&&&&&&&&&&&&&&&&&&&&&&&&&&&&&&&&&",
"************&&&&&&&&&&&&&&&&&&&&&&&&&&&&&&&&&&&&&&&&&&&&&&&&&&&&",
"************&&&&&&&&&&&&&&&&&&&&&&&&&&&&&&&&&&&&&&&&&&&&&&&&&&&&",
"********************************************OOOO****************",
"********************************************OOOO****************",
"********************************************OOOO****************",
"********************************************OOOO****************",
"********************************************OOOO****************",
"********************************************OOOO****************",
"********************************************OOOO****************",
"********************************************OOOO****************",
"********************************************OOOO****************",
"********************************************OOOO****************",
"********************************************OOOO****************",
"********************************************OOOO****************",
"************************************OOOOOOOOOOOO****************",
"************************************OOOOOOOOOOOO****************",
"************************************##@@++++++@@****************",
"************************************##@@++++++@@****************"
};
